{
  "asset": {
    "version": "2.0",
    "generator": "THREE.GLTFExporter"
  },
  "scenes": [
    {
      "name": "Scene",
      "nodes": [
        9
      ]
    }
  ],
  "scene": 0,
  "nodes": [
    {
      "matrix": [
        0.5504330584586469,
        0,
        -0.816852770183134,
        0,
        -0.816852770183134,
        2.1871393585115584e-16,
        -0.5504330584586468,
        0,
        1.093569679255779e-16,
        0.9849999999999999,
        1.093569679255779e-16,
        0,
        1.1707239709352364,
        3.5127649874208577,
        1.0965597838232863,
        1
      ],
      "name": "Cube001__0",
      "extras": {
        "name": "Cube.001__0"
      },
      "mesh": 0
    },
    {
      "matrix": [
        0.7724970222417891,
        2.7339241981394474e-16,
        -0.6111246604642694,
        0,
        -0.6111246604642692,
        6.561418075534673e-16,
        -0.772497022241789,
        0,
        5.4678483962788934e-17,
        0.9849999999999995,
        6.561418075534672e-16,
        0,
        -2.80827893924605,
        3.527167971098937,
        4.319782644807404,
        1
      ],
      "name": "Cube007__0",
      "extras": {
        "name": "Cube.007__0"
      },
      "mesh": 1
    },
    {
      "matrix": [
        0.8448105711079783,
        2.2204460492503126e-16,
        0.5350655090212889,
        0,
        0.5270395263859698,
        1.0935696792557794e-16,
        -0.832138412541359,
        0,
        -2.1871393585115586e-16,
        0.9850000000000001,
        0,
        0,
        3.815183743818788,
        3.5,
        1.3535169543360253,
        1
      ],
      "name": "Cube008__0",
      "extras": {
        "name": "Cube.008__0"
      },
      "mesh": 2
    },
    {
      "matrix": [
        0.985,
        0,
        0,
        0,
        0,
        7.654987754790453e-16,
        -0.9849999999999995,
        0,
        0,
        0.9849999999999995,
        7.654987754790453e-16,
        0,
        2.6070509248594194,
        3.5,
        9.140260475768812,
        1
      ],
      "name": "Cube009__0",
      "extras": {
        "name": "Cube.009__0"
      },
      "mesh": 3
    },
    {
      "matrix": [
        2.297631451755691,
        0.10435378240887187,
        0,
        0,
        -0.10391805452754287,
        2.2880377210691902,
        0.2099629131721051,
        0,
        0.00952627137178031,
        -0.20974669261151208,
        2.2903963794706543,
        0,
        2.527304175206125,
        6.503301577783103,
        9.067284113952422,
        1
      ],
      "name": "Object_4",
      "extras": {
        "name": "Object_4"
      },
      "mesh": 4
    },
    {
      "matrix": [
        1.2255491033581896,
        -0.264216732824688,
        -1.9282683717142133,
        0,
        0.6641817711148061,
        2.1986938828369174,
        0.12086266790997696,
        0,
        1.8294512757044763,
        -0.6212364506940697,
        1.2478675018415606,
        0,
        -2.8324922567564537,
        6.543936330199651,
        4.21773295788576,
        1
      ],
      "name": "Object_4_1",
      "extras": {
        "name": "Object_4"
      },
      "mesh": 4
    },
    {
      "matrix": [
        0.985,
        0,
        0,
        0,
        0,
        7.654987754790453e-16,
        -0.9849999999999995,
        0,
        0,
        0.9849999999999995,
        7.654987754790453e-16,
        0,
        -1.233327988980668,
        2.342491995447105,
        6.401412460385119,
        1
      ],
      "name": "Cube010__0",
      "extras": {
        "name": "Cube.010__0"
      },
      "mesh": 5
    },
    {
      "matrix": [
        0.25,
        0,
        0,
        0,
        0,
        0.25,
        0,
        0,
        0,
        0,
        0.25,
        0,
        0,
        0,
        0,
        1
      ],
      "name": "scene_(21)gltf",
      "extras": {
        "name": "scene (21).gltf"
      },
      "children": [
        0,
        1,
        2,
        3,
        4,
        5,
        6
      ]
    },
    {
      "name": "scene_(24)gltf",
      "extras": {
        "name": "scene (24).gltf"
      },
      "children": [
        7
      ]
    },
    {
      "name": "white gang.gltf",
      "children": [
        8
      ]
    }
  ],
  "bufferViews": [
    {
      "buffer": 0,
      "byteOffset": 0,
      "byteLength": 18084,
      "target": 34962,
      "byteStride": 12
    },
    {
      "buffer": 0,
      "byteOffset": 18084,
      "byteLength": 18084,
      "target": 34962,
      "byteStride": 12
    },
    {
      "buffer": 0,
      "byteOffset": 36168,
      "byteLength": 12056,
      "target": 34962,
      "byteStride": 8
    },
    {
      "buffer": 0,
      "byteOffset": 48224,
      "byteLength": 9072,
      "target": 34963
    },
    {
      "buffer": 0,
      "byteOffset": 57296,
      "byteLength": 17400,
      "target": 34962,
      "byteStride": 12
    },
    {
      "buffer": 0,
      "byteOffset": 74696,
      "byteLength": 17400,
      "target": 34962,
      "byteStride": 12
    },
    {
      "buffer": 0,
      "byteOffset": 92096,
      "byteLength": 11600,
      "target": 34962,
      "byteStride": 8
    },
    {
      "buffer": 0,
      "byteOffset": 103696,
      "byteLength": 9072,
      "target": 34963
    },
    {
      "buffer": 0,
      "byteOffset": 112768,
      "byteLength": 17400,
      "target": 34962,
      "byteStride": 12
    },
    {
      "buffer": 0,
      "byteOffset": 130168,
      "byteLength": 17400,
      "target": 34962,
      "byteStride": 12
    },
    {
      "buffer": 0,
      "byteOffset": 147568,
      "byteLength": 11600,
      "target": 34962,
      "byteStride": 8
    },
    {
      "buffer": 0,
      "byteOffset": 159168,
      "byteLength": 9072,
      "target": 34963
    },
    {
      "buffer": 0,
      "byteOffset": 168240,
      "byteLength": 17400,
      "target": 34962,
      "byteStride": 12
    },
    {
      "buffer": 0,
      "byteOffset": 185640,
      "byteLength": 17400,
      "target": 34962,
      "byteStride": 12
    },
    {
      "buffer": 0,
      "byteOffset": 203040,
      "byteLength": 11600,
      "target": 34962,
      "byteStride": 8
    },
    {
      "buffer": 0,
      "byteOffset": 214640,
      "byteLength": 9072,
      "target": 34963
    },
    {
      "buffer": 0,
      "byteOffset": 223712,
      "byteLength": 13992,
      "target": 34962,
      "byteStride": 12
    },
    {
      "buffer": 0,
      "byteOffset": 237704,
      "byteLength": 13992,
      "target": 34962,
      "byteStride": 12
    },
    {
      "buffer": 0,
      "byteOffset": 251696,
      "byteLength": 9328,
      "target": 34962,
      "byteStride": 8
    },
    {
      "buffer": 0,
      "byteOffset": 261024,
      "byteLength": 9328,
      "target": 34962,
      "byteStride": 8
    },
    {
      "buffer": 0,
      "byteOffset": 270352,
      "byteLength": 9328,
      "target": 34962,
      "byteStride": 8
    },
    {
      "buffer": 0,
      "byteOffset": 279680,
      "byteLength": 9328,
      "target": 34962,
      "byteStride": 8
    },
    {
      "buffer": 0,
      "byteOffset": 289008,
      "byteLength": 9328,
      "target": 34962,
      "byteStride": 8
    },
    {
      "buffer": 0,
      "byteOffset": 298336,
      "byteLength": 14256,
      "target": 34963
    },
    {
      "buffer": 0,
      "byteOffset": 312592,
      "byteLength": 17400,
      "target": 34962,
      "byteStride": 12
    },
    {
      "buffer": 0,
      "byteOffset": 329992,
      "byteLength": 17400,
      "target": 34962,
      "byteStride": 12
    },
    {
      "buffer": 0,
      "byteOffset": 347392,
      "byteLength": 11600,
      "target": 34962,
      "byteStride": 8
    },
    {
      "buffer": 0,
      "byteOffset": 358992,
      "byteLength": 9072,
      "target": 34963
    }
  ],
  "buffers": [
    {
      "byteLength": 368064,
      "uri": "data:application/octet-stream;base64,"
    }
  ],
  "accessors": [
    {
      "bufferView": 0,
      "componentType": 5126,
      "count": 1507,
      "max": [
        0.9999944567680359,
        0.9984132051467896,
        0.9956832528114319
      ],
      "min": [
        -0.999548614025116,
        -0.9933118224143982,
        -1
      ],
      "type": "VEC3"
    },
    {
      "bufferView": 1,
      "componentType": 5126,
      "count": 1507,
      "max": [
        1.5955082178115845,
        0.742611289024353,
        3.513913869857788
      ],
      "min": [
        -1.5955082178115845,
        -0.742611289024353,
        -3.513913869857788
      ],
      "type": "VEC3"
    },
    {
      "bufferView": 2,
      "componentType": 5126,
      "count": 1507,
      "max": [
        0.7500000596046448,
        0.8750000596046448
      ],
      "min": [
        0,
        0
      ],
      "type": "VEC2"
    },
    {
      "bufferView": 3,
      "componentType": 5125,
      "count": 2268,
      "max": [
        1506
      ],
      "min": [
        0
      ],
      "type": "SCALAR"
    },
    {
      "bufferView": 4,
      "componentType": 5126,
      "count": 1450,
      "max": [
        0.9924840331077576,
        0.9997224807739258,
        0.9956165552139282
      ],
      "min": [
        -0.9953101873397827,
        -0.9968764185905457,
        -0.9999932050704956
      ],
      "type": "VEC3"
    },
    {
      "bufferView": 5,
      "componentType": 5126,
      "count": 1450,
      "max": [
        0.9764013290405273,
        0.7930853962898254,
        3.5378386974334717
      ],
      "min": [
        -0.9764013290405273,
        -0.7930853962898254,
        -3.5378386974334717
      ],
      "type": "VEC3"
    },
    {
      "bufferView": 6,
      "componentType": 5126,
      "count": 1450,
      "max": [
        0.7500000596046448,
        0.8750000596046448
      ],
      "min": [
        0,
        0
      ],
      "type": "VEC2"
    },
    {
      "bufferView": 7,
      "componentType": 5125,
      "count": 2268,
      "max": [
        1449
      ],
      "min": [
        0
      ],
      "type": "SCALAR"
    },
    {
      "bufferView": 8,
      "componentType": 5126,
      "count": 1450,
      "max": [
        0.9913147687911987,
        0.991794228553772,
        0.99855637550354
      ],
      "min": [
        -0.9986247420310974,
        -0.999995231628418,
        -0.9999982714653015
      ],
      "type": "VEC3"
    },
    {
      "bufferView": 9,
      "componentType": 5126,
      "count": 1450,
      "max": [
        1.2599592208862305,
        1.0316073894500732,
        3.5166304111480713
      ],
      "min": [
        -1.2599592208862305,
        -1.0316073894500732,
        -3.5166304111480713
      ],
      "type": "VEC3"
    },
    {
      "bufferView": 10,
      "componentType": 5126,
      "count": 1450,
      "max": [
        0.7500000596046448,
        0.8750000596046448
      ],
      "min": [
        0,
        0
      ],
      "type": "VEC2"
    },
    {
      "bufferView": 11,
      "componentType": 5125,
      "count": 2268,
      "max": [
        1449
      ],
      "min": [
        0
      ],
      "type": "SCALAR"
    },
    {
      "bufferView": 12,
      "componentType": 5126,
      "count": 1450,
      "max": [
        0.999971866607666,
        0.9982691407203674,
        0.9798724055290222
      ],
      "min": [
        -0.9961404800415039,
        -0.9835006594657898,
        -0.9992280006408691
      ],
      "type": "VEC3"
    },
    {
      "bufferView": 13,
      "componentType": 5126,
      "count": 1450,
      "max": [
        1.1273307800292969,
        1.7825648784637451,
        3.5220627784729004
      ],
      "min": [
        -1.1273307800292969,
        -1.7825648784637451,
        -3.5220627784729004
      ],
      "type": "VEC3"
    },
    {
      "bufferView": 14,
      "componentType": 5126,
      "count": 1450,
      "max": [
        0.7500000596046448,
        0.8750000596046448
      ],
      "min": [
        0,
        0
      ],
      "type": "VEC2"
    },
    {
      "bufferView": 15,
      "componentType": 5125,
      "count": 2268,
      "max": [
        1449
      ],
      "min": [
        0
      ],
      "type": "SCALAR"
    },
    {
      "bufferView": 16,
      "componentType": 5126,
      "count": 1166,
      "max": [
        1,
        1,
        1
      ],
      "min": [
        -1,
        -1,
        -1
      ],
      "type": "VEC3"
    },
    {
      "bufferView": 17,
      "componentType": 5126,
      "count": 1166,
      "max": [
        0.19472523033618927,
        0.21481889486312866,
        0.2428058385848999
      ],
      "min": [
        -0.19489361345767975,
        -0.03562074899673462,
        -0.24166922271251678
      ],
      "type": "VEC3"
    },
    {
      "bufferView": 18,
      "componentType": 5126,
      "count": 1166,
      "max": [
        0.9990234375,
        0.9984436631202698
      ],
      "min": [
        0.0009765625,
        0.0009765625
      ],
      "type": "VEC2"
    },
    {
      "bufferView": 19,
      "componentType": 5126,
      "count": 1166,
      "max": [
        0.9990234375,
        0.9984436631202698
      ],
      "min": [
        0.0009765625,
        0.0009765625
      ],
      "type": "VEC2"
    },
    {
      "bufferView": 20,
      "componentType": 5126,
      "count": 1166,
      "max": [
        0.9990234375,
        0.9984436631202698
      ],
      "min": [
        0.0009765625,
        0.0009765625
      ],
      "type": "VEC2"
    },
    {
      "bufferView": 21,
      "componentType": 5126,
      "count": 1166,
      "max": [
        0.9990234375,
        0.9984436631202698
      ],
      "min": [
        0.0009765625,
        0.0009765625
      ],
      "type": "VEC2"
    },
    {
      "bufferView": 22,
      "componentType": 5126,
      "count": 1166,
      "max": [
        0.9990234375,
        0.9984436631202698
      ],
      "min": [
        0.0009765625,
        0.0009765625
      ],
      "type": "VEC2"
    },
    {
      "bufferView": 23,
      "componentType": 5125,
      "count": 3564,
      "max": [
        1165
      ],
      "min": [
        0
      ],
      "type": "SCALAR"
    },
    {
      "bufferView": 24,
      "componentType": 5126,
      "count": 1450,
      "max": [
        0.999664306640625,
        0.9994311332702637,
        0.9960085153579712
      ],
      "min": [
        -0.9809626936912537,
        -0.9913169145584106,
        -0.999932587146759
      ],
      "type": "VEC3"
    },
    {
      "bufferView": 25,
      "componentType": 5126,
      "count": 1450,
      "max": [
        1.653855323791504,
        1.2350994348526,
        2.3639419078826904
      ],
      "min": [
        -1.653855323791504,
        -1.2350994348526,
        -2.3639419078826904
      ],
      "type": "VEC3"
    },
    {
      "bufferView": 26,
      "componentType": 5126,
      "count": 1450,
      "max": [
        0.7500000596046448,
        0.8750000596046448
      ],
      "min": [
        0,
        0
      ],
      "type": "VEC2"
    },
    {
      "bufferView": 27,
      "componentType": 5125,
      "count": 2268,
      "max": [
        1449
      ],
      "min": [
        0
      ],
      "type": "SCALAR"
    }
  ],
  "materials": [
    {
      "pbrMetallicRoughness": {
        "metallicFactor": 0,
        "roughnessFactor": 0.6
      },
      "doubleSided": true,
      "name": "Scene_-_Root"
    },
    {
      "pbrMetallicRoughness": {
        "baseColorFactor": [
          1,
          0.5775804404214573,
          0.08437621153575764,
          1
        ],
        "metallicFactor": 1,
        "roughnessFactor": 1,
        "metallicRoughnessTexture": {
          "index": 0
        }
      },
      "emissiveFactor": [
        1,
        1,
        1
      ],
      "emissiveTexture": {
        "index": 1
      },
      "name": "coalmine_helmet"
    }
  ],
  "meshes": [
    {
      "primitives": [
        {
          "mode": 4,
          "attributes": {
            "NORMAL": 0,
            "POSITION": 1,
            "TEXCOORD_0": 2
          },
          "indices": 3,
          "material": 0
        }
      ]
    },
    {
      "primitives": [
        {
          "mode": 4,
          "attributes": {
            "NORMAL": 4,
            "POSITION": 5,
            "TEXCOORD_0": 6
          },
          "indices": 7,
          "material": 0
        }
      ]
    },
    {
      "primitives": [
        {
          "mode": 4,
          "attributes": {
            "NORMAL": 8,
            "POSITION": 9,
            "TEXCOORD_0": 10
          },
          "indices": 11,
          "material": 0
        }
      ]
    },
    {
      "primitives": [
        {
          "mode": 4,
          "attributes": {
            "NORMAL": 12,
            "POSITION": 13,
            "TEXCOORD_0": 14
          },
          "indices": 15,
          "material": 0
        }
      ]
    },
    {
      "primitives": [
        {
          "mode": 4,
          "attributes": {
            "NORMAL": 16,
            "POSITION": 17,
            "TEXCOORD_0": 18,
            "TEXCOORD_1": 19,
            "TEXCOORD_2": 20,
            "TEXCOORD_3": 21,
            "TEXCOORD_4": 22
          },
          "indices": 23,
          "material": 1
        }
      ]
    },
    {
      "primitives": [
        {
          "mode": 4,
          "attributes": {
            "NORMAL": 24,
            "POSITION": 25,
            "TEXCOORD_0": 26
          },
          "indices": 27,
          "material": 0
        }
      ]
    }
  ],
  "textures": [
    {
      "sampler": 0,
      "source": 0
    },
    {
      "sampler": 1,
      "source": 1
    }
  ],
  "samplers": [
    {
      "magFilter": 9729,
      "minFilter": 9987,
      "wrapS": 10497,
      "wrapT": 10497
    },
    {
      "magFilter": 9729,
      "minFilter": 9987,
      "wrapS": 10497,
      "wrapT": 10497
    }
  ],
  "images": [
    {
      "mimeType": "image/png",
      "uri": "data:image/png;base64,"
    },
    {
      "mimeType": "image/png",
      "uri": "data:image/png;base64,"
    }
  ]
}